<svg xmlns="http://www.w3.org/2000/svg" version="1.1" xmlns:xlink="http://www.w3.org/1999/xlink" width="512" height="512" x="0" y="0" viewBox="0 0 512 512" style="enable-background:new 0 0 512 512" xml:space="preserve" class=""><g><path fill-rule="evenodd" d="M256 0c141.385 0 256 114.615 256 256S397.385 512 256 512 0 397.385 0 256 114.615 0 256 0zm104.897 264.624c2.847-2.072 4.389-5.102 4.389-8.624 0-3.521-1.542-6.551-4.389-8.624l-162.032-117.93c-3.326-2.421-7.449-2.748-11.115-.882s-5.828 5.392-5.828 9.506v235.86c0 4.114 2.161 7.64 5.828 9.506 3.666 1.866 7.789 1.539 11.115-.882z" clip-rule="evenodd" fill="#000000" opacity="1" data-original="#000000" class=""></path></g></svg>
