<svg xmlns="http://www.w3.org/2000/svg" version="1.1" xmlns:xlink="http://www.w3.org/1999/xlink" width="512" height="512" x="0" y="0" viewBox="0 0 4335 4335" style="enable-background:new 0 0 512 512" xml:space="preserve" fill-rule="evenodd" class=""><g><path d="M0 1440V528c0-32 26-57 58-57h497v528c0 69 56 125 125 125h433c69 0 125-56 125-125V471h588v528c0 69 56 125 125 125h432c70 0 126-56 126-125V471h588v528c0 69 56 125 125 125h432c70 0 126-56 126-125V471h497c32 0 58 25 58 57v912zM4277 4335H58c-32 0-58-26-58-58V1505h4335v2772c0 32-26 58-58 58zM2584 3087c18-1 33-15 33-33 0-3-2-8-2-11l-19-226 172-161c8-8 12-21 9-32-3-12-12-20-24-23l-229-54-100-213c-6-11-16-18-28-19-12 0-23 6-29 16l-122 201-234 30c-12 1-22 9-26 20s-2 24 6 33l153 178-44 232c-2 11 3 23 12 31 9 7 22 9 33 4l217-90 206 113c5 2 11 3 16 4zm-220-186c-5 0-9 1-13 3l-176 74 36-188c1-10-1-19-8-27l-124-145 189-24c10-1 19-7 24-15l99-163 81 172c4 9 13 16 22 18l186 44-139 131c-7 7-11 16-10 26l16 190-168-92c-5-2-10-4-15-4zm-139 876c245 0 475-95 648-268 57-57 107-123 148-194 7-12 5-28-5-38-11-11-27-13-39-6-128 73-274 112-422 112-227 0-441-89-601-249-271-271-327-691-138-1023 7-13 5-29-5-39s-26-13-39-5c-71 40-136 90-194 148-357 357-357 938 0 1294 173 173 403 268 647 268zm-548-1502c-93 319-4 669 231 904 173 173 403 268 647 268 87 0 174-12 257-36l93-27-67 69c-4 3-7 7-11 11-160 161-375 249-602 249s-441-89-601-249c-332-332-331-871 0-1203 3-4 7-8 11-11l68-67zm2346 1823c18 0 32-14 32-32V1774c0-18-14-32-32-32H312c-18 0-32 14-32 32v2292c0 18 14 32 32 32zm-3679-64V1806h3647v2228z" fill="#000000" opacity="1" data-original="#000000" class=""></path><path d="M2383 1056h-432c-31 0-57-25-57-57V58c0-32 26-58 57-58h432c32 0 58 26 58 58v941c0 32-26 57-58 57zM3654 1056h-432c-32 0-57-25-57-57V58c0-32 25-58 57-58h432c32 0 58 26 58 58v941c0 32-26 57-58 57zM1113 1056H680c-31 0-57-25-57-57V58c0-32 26-58 57-58h433c31 0 57 26 57 58v941c0 32-26 57-57 57z" fill="#000000" opacity="1" data-original="#000000" class=""></path></g></svg>
