<svg xmlns="http://www.w3.org/2000/svg" version="1.1" xmlns:xlink="http://www.w3.org/1999/xlink" width="512" height="512" x="0" y="0" viewBox="0 0 64 64" style="enable-background:new 0 0 512 512" xml:space="preserve" class=""><g><path d="M15.88 50.65h-.1L2.1 45.61 0 50.73l14.34 5.23 2.03-5.1-.5-.18zM29.75 20.32c-.26-.15-.53-.23-.79-.23-.11 0-.21.01-.32.04-.5.13-.98.55-1.38 1.2l-4.69 7.48c-.07.12-.2.18-.34.18-.07 0-.14-.02-.21-.07a.365.365 0 0 1-.18-.24.403.403 0 0 1 .05-.32l6.86-10.93c.59-.94.33-2.16-.59-2.77-.34-.22-.73-.34-1.13-.34-.13 0-.27.01-.4.04-.49.09-.92.37-1.25.8l-6.24 10.03c-.07.12-.2.18-.34.18a.418.418 0 0 1-.4-.32c-.02-.1 0-.21.06-.3l6.18-9.93-.09-.05.15-.05 1.4-2.24c.59-.94.33-2.16-.59-2.77a2.071 2.071 0 0 0-1.53-.3c-.54.11-1 .42-1.29.87l-8.2 12.42c-.08.12-.2.18-.34.18a.34.34 0 0 1-.22-.07.401.401 0 0 1-.11-.56l7.3-11.06c.23-.34.34-.72.34-1.13a2.015 2.015 0 0 0-2.02-2.02c-.66 0-1.28.32-1.66.86l-7.4 10.49.18 7.69c4.14 2.77 3.49 7.84 3.46 8.06-.03.19-.2.34-.45.34h-.01c-.1-.01-.19-.06-.26-.15s-.1-.2-.08-.31c.01-.05.69-4.91-3.32-7.4a.39.39 0 0 1-.19-.34l-.16-9.01c-.01-.58-.25-1.12-.68-1.52-.38-.35-.88-.54-1.4-.54-.05 0-.11 0-.16.01-.47.03-.93.25-1.32.64-.36.37-.58.84-.61 1.33-.31 4.97-.7 8.3-1.18 10.19-1.01 4.03-1.35 6.83-.37 11 .13.55.29 1.19.49 1.77.36 1.12.23 2.33-.35 3.32-.08.13-.16.27-.23.4l-.23.4 12.15 4.48.51-1.56c.12-.4.41-.75.79-.95 8.52-4.55 8.09-10.94 7.9-13.67l-.02-.33c-.01-.08.01-.15.05-.22l5.43-10.11c.18-.35.27-.73.27-1.1.01-.46-.14-1.08-.84-1.49zM48.35 49.73l12.16-4.48-.18-.31c-.1-.17-.19-.33-.29-.49-.58-.99-.71-2.2-.36-3.31.17-.5.34-1.09.5-1.78.98-4.18.64-6.98-.38-10.99-.48-1.9-.86-5.23-1.18-10.2-.03-.49-.25-.96-.61-1.34-.38-.38-.84-.6-1.31-.63-.05 0-.11-.01-.16-.01-.52 0-1.02.19-1.4.54-.43.4-.67.94-.68 1.52l-.15 9c-.01.14-.08.27-.2.35-3.66 2.27-3.41 6.54-3.32 7.4.02.11-.01.22-.08.31-.06.08-.16.14-.33.15-.19 0-.37-.15-.4-.35-.07-.54-.58-5.34 3.51-8.14l.11-7.67-7.36-10.41a2.048 2.048 0 0 0-2.84-.49c-.53.37-.84.97-.84 1.65 0 .41.11.79.36 1.18l7.27 11.01c.12.19.07.44-.12.56a.36.36 0 0 1-.22.07c-.14 0-.26-.07-.34-.18L41.3 10.28a2.038 2.038 0 0 0-2.82-.57c-.92.61-1.19 1.83-.6 2.77l1.4 2.24.09-.05-.02.16 6.19 9.93a.406.406 0 0 1-.35.62.39.39 0 0 1-.34-.19L38.6 15.15c-.31-.42-.75-.7-1.24-.79a2.046 2.046 0 0 0-1.53.3c-.92.61-1.19 1.83-.6 2.77l6.87 10.93c.12.2.06.45-.13.56-.07.04-.15.07-.22.07a.39.39 0 0 1-.34-.19l-4.71-7.49c-.38-.64-.87-1.06-1.37-1.19-.1-.02-.21-.04-.31-.04-.26 0-.52.08-.78.23-.74.43-.85 1.11-.85 1.48 0 .38.1.76.29 1.12L39.11 33c.03.07.05.14.05.22l-.03.35c-.17 2.73-.58 9.12 7.9 13.65.38.2.67.54.81.95zM61.9 45.61l-13.65 5.03-.1.01v.03l-.52.18 2.05 5.1L64 50.73z" fill="#000000" opacity="1" data-original="#000000" class=""></path></g></svg>
