<svg xmlns="http://www.w3.org/2000/svg" version="1.1" xmlns:xlink="http://www.w3.org/1999/xlink" width="512" height="512" x="0" y="0" viewBox="0 0 64 64" style="enable-background:new 0 0 512 512" xml:space="preserve" class=""><g><path d="M40.498 31.685c5.789.05 12.417-2.74 12.697-2.86a.938.938 0 0 0 .52-1.14c-.975-3.126-3.566-11.544-4.479-14.507a.966.966 0 0 0-1.42-.51 16.885 16.885 0 0 1-7.768 1.54 12.136 12.136 0 0 0-7.049 1.84c.02 1.017 0 18.576 0 18.576a10.911 10.911 0 0 1 7.499-2.94zM10.804 28.825c.28.12 6.888 2.9 12.697 2.86A11.05 11.05 0 0 1 31 34.625V16.057c-.25-.15-.53-.31-.83-.46a11.917 11.917 0 0 0-6.219-1.39 16.958 16.958 0 0 1-7.769-1.54 1.006 1.006 0 0 0-.89-.07c-.496.163-.6.836-.74 1.26a6939.092 6939.092 0 0 1-4.268 13.828.938.938 0 0 0 .52 1.14z" fill="#000000" opacity="1" data-original="#000000" class=""></path><path d="m59.954 31.225-5.669-18.267a1.006 1.006 0 0 0-1.33-.63l-1.68.69 4.35 14.078a2.916 2.916 0 0 1-1.64 3.559c-.29.13-7.168 3.1-13.497 3.03a8.65 8.65 0 0 0-4.56 1.24c-1.773 1.022-1.554 1.548-2.929 2.129a2.95 2.95 0 0 1-3.2-.81 9.404 9.404 0 0 0-6.268-2.56c-6.339.05-13.227-2.899-13.517-3.029a2.916 2.916 0 0 1-1.64-3.56l4.35-14.077-1.68-.69a1.002 1.002 0 0 0-1.33.63l-5.67 18.267a1.002 1.002 0 0 0 .69 1.25s21.792 6.173 23.196 6.568c.965.26 1.1.97 1.47 1.74.397.615 1.613.329 2.27.39h2.14a1.013 1.013 0 0 0 .979-.78 1.826 1.826 0 0 1 1.28-1.35c5.54-1.573 17.525-4.964 23.195-6.568a1.001 1.001 0 0 0 .69-1.25zM27.69 41.843a3.233 3.233 0 0 1-.4-.91c-1.467-.415-6.838-1.928-8.198-2.32v3.08a.962.962 0 0 1-.29.68l-4.58 4.369c-.966.792-.843 2.273-.829 3.39a1.63 1.63 0 0 0 2.47 1.369l13.607-8.408a3.074 3.074 0 0 1-1.78-1.25zM45.197 42.373a.962.962 0 0 1-.29-.68v-3.08l-2 .57-6.198 1.75a3.004 3.004 0 0 1-2.17 2.16L48.136 51.5a1.63 1.63 0 0 0 2.47-1.37c.008-1.121.14-2.594-.83-3.39z" fill="#000000" opacity="1" data-original="#000000" class=""></path></g></svg>