<svg xmlns="http://www.w3.org/2000/svg" version="1.1" xmlns:xlink="http://www.w3.org/1999/xlink" width="512" height="512" x="0" y="0" viewBox="0 0 479.999 479.999" style="enable-background:new 0 0 512 512" xml:space="preserve" class=""><g><path d="M418.983 452.529c-.273 4.253-3.993 7.471-8.255 7.471H229.32a4 4 0 0 1-4-4v-8a4 4 0 0 1 4-4H411a7.999 7.999 0 0 1 7.983 8.529z" fill="#000000" opacity="1" data-original="#000000" class=""></path><path d="M404 405.996V420a8 8 0 0 1-8 8H229.32a4 4 0 0 1-4-4c0-3.191.362-5.939-2.34-8.66-5.139-5.103-13.66-1.34-13.66 5.967v38.239c0 13.862-12.512 23.118-25.2 19.764L168 474.98l-15.66 4.2c-13.52 3.636-25.66-6.207-25.66-19.12v-38.788c0-4.262-3.218-7.982-7.471-8.255A7.999 7.999 0 0 0 110.68 421v3a4 4 0 0 1-4 4h-2.244c-8.067 0-15.018-6.185-15.417-14.242-.427-8.613 6.459-15.756 14.981-15.758 218.007-.04 275.476.089 291.952-.003a8 8 0 0 1 8.048 7.999z" fill="#000000" opacity="1" data-original="#000000" class=""></path><path d="M106.68 444H104c-17.405 0-31.511-14.427-30.986-31.947.434-14.467 11.011-26.23 24.662-29.275 3.681-.821 6.324-4.045 6.324-7.816V8.824c0-5.128-4.744-8.869-9.762-7.809C72.965 5.509 57 24.39 57 47v366c0 25.957 21.043 47 47 47h2.68a4 4 0 0 0 4-4v-8a4 4 0 0 0-4-4zM336 128h-3a8 8 0 0 1-8-8c0-13.404-9.722-21.181-19.324-21.935-10.126-.795-19.166-7.25-23.592-16.845C278.661 73.796 271.17 69 263 69s-15.661 4.797-19.084 12.22c-4.424 9.595-13.464 16.05-23.592 16.845C210.721 98.82 201 106.596 201 120a8 8 0 0 1-8 8h-3c-11.58 0-21 9.42-21 21v88c0 11.58 9.42 21 21 21h3a8 8 0 0 1 8 8c0 13.403 9.721 21.18 19.324 21.935 10.127.795 19.167 7.25 23.592 16.846C247.339 312.203 254.83 317 263 317s15.661-4.796 19.084-12.22c4.426-9.596 13.466-16.051 23.592-16.846C315.278 287.181 325 279.404 325 266a8 8 0 0 1 8-8h3c11.579 0 21-9.42 21-21v-88c0-11.58-9.421-21-21-21zm-73 136c-40.252 0-73-32.748-73-73s32.748-73 73-73 73 32.748 73 73-32.748 73-73 73z" fill="#000000" opacity="1" data-original="#000000" class=""></path><circle cx="263" cy="191" r="57" fill="#000000" opacity="1" data-original="#000000" class=""></circle><path d="M399 0H128a8 8 0 0 0-8 8v366a8 8 0 0 0 8 8h271c13.255 0 24-10.745 24-24V24c0-13.255-10.745-24-24-24zm-26 237c0 18.941-14.309 34.604-32.683 36.75-3.347 18.359-18.449 28.963-33.39 30.136-4.359.342-8.312 3.252-10.314 7.595-4.887 10.599-14.486 18.155-25.613 20.636V339a8 8 0 0 1-16 0v-6.884c-11.128-2.481-20.726-10.037-25.614-20.636-2.002-4.342-5.955-7.252-10.314-7.594-17.161-1.349-30.231-13.563-33.356-30.132C167.325 271.623 153 255.953 153 237v-88c0-18.941 14.308-34.604 32.683-36.75 3.346-18.358 18.448-28.962 33.388-30.136 4.36-.342 8.313-3.252 10.314-7.594 4.888-10.599 14.487-18.156 25.614-20.637V47a8 8 0 0 1 16 0v6.884c11.128 2.481 20.727 10.037 25.613 20.637 2.003 4.341 5.955 7.251 10.314 7.594 17.16 1.348 30.231 13.563 33.356 30.132C358.674 114.377 373 130.047 373 149z" fill="#000000" opacity="1" data-original="#000000" class=""></path></g></svg>